<svg xmlns="http://www.w3.org/2000/svg" fill="none" viewBox="0 0 24 24"><path fill="#e3e3e3" d="M1 19.174a20.845 20.845 0 0 1 5.74-.957c2.869 0 7.173 1.913 10.043 1.913a17.712 17.712 0 0 0 5.594-1.19.957.957 0 0 0 .623-.897V4.77a.955.955 0 0 0-1.264-.906 16.611 16.611 0 0 1-4.953.963c-2.87 0-7.174-1.913-10.044-1.913-1.948.05-3.88.371-5.739.957v15.304Z"/><path fill="#fff" d="M12.478 4.06A25.721 25.721 0 0 0 6.74 2.914c-1.948.05-3.88.371-5.739.957v15.304a20.845 20.845 0 0 1 5.74-.957c1.95.163 3.875.548 5.738 1.148V4.061Z"/><path stroke="#191919" stroke-linecap="round" stroke-linejoin="round" d="M1 23V1M1 19.174a20.845 20.845 0 0 1 5.74-.957c2.869 0 7.173 1.913 10.043 1.913a17.712 17.712 0 0 0 5.594-1.19.957.957 0 0 0 .623-.897V4.77a.955.955 0 0 0-1.264-.906 16.611 16.611 0 0 1-4.953.963c-2.87 0-7.174-1.913-10.044-1.913-1.948.05-3.88.371-5.739.957v15.304Z"/><path fill="#ff808c" stroke="#191919" stroke-linecap="round" stroke-linejoin="round" d="M12.81 15.003a.456.456 0 0 1-.663 0l-2.93-3.057a1.93 1.93 0 1 1 2.729-2.727l.532.532.533-.532a1.93 1.93 0 0 1 2.728 2.728l-2.93 3.056Z"/></svg>