<svg xmlns="http://www.w3.org/2000/svg" fill="none" viewBox="0 0 24 24"><path fill="#c77f67" d="M23 7.696a3.826 3.826 0 0 0-3.826-3.826H4.826A3.826 3.826 0 0 0 1 7.696v1.913h22V7.696z"/><path fill="#e3bfb3" d="M19.174 3.87H4.826A3.826 3.826 0 0 0 1 7.696v1.913h.12a3.826 3.826 0 0 1 3.706-2.87h14.348a3.826 3.826 0 0 1 3.706 2.87H23V7.696a3.826 3.826 0 0 0-3.826-3.826z"/><path stroke="#191919" stroke-linecap="round" stroke-linejoin="round" d="M23 7.696a3.826 3.826 0 0 0-3.826-3.826H4.826A3.826 3.826 0 0 0 1 7.696v1.913h22V7.696z"/><path stroke="#191919" stroke-linecap="round" stroke-linejoin="round" d="M9.609 3.87c-2.87 0-2.87 3.826-2.87 3.826v1.913M14.393 3.87c2.87 0 2.87 3.826 2.87 3.826v1.913"/><path fill="#e3e3e3" stroke="#191919" stroke-linecap="round" stroke-linejoin="round" d="M23 9.609v1.913h-8.609a.479.479 0 0 0-.478.478v.478A1.927 1.927 0 0 1 12 14.391a1.92 1.92 0 0 1-1.913-1.913V12a.478.478 0 0 0-.478-.478H1V9.609h22z"/><path fill="#c77f67" stroke="#191919" stroke-linecap="round" stroke-linejoin="round" d="M23 11.522v6.695a1.919 1.919 0 0 1-1.913 1.913H2.913A1.919 1.919 0 0 1 1 18.217v-6.695h8.609a.478.478 0 0 1 .478.478v.478A1.919 1.919 0 0 0 12 14.391a1.927 1.927 0 0 0 1.913-1.913V12a.479.479 0 0 1 .478-.478H23z"/><path stroke="#191919" stroke-linecap="round" stroke-linejoin="round" d="M12.001 11.522v.956M6.74 11.522v8.608M17.262 11.522v8.608"/></svg>