<svg xmlns="http://www.w3.org/2000/svg" fill="none" viewBox="0 0 24 24"><desc>Book Open Bookmark Streamline Icon: https://streamlinehq.com</desc><path fill="#fff" d="M12 6.038c0-1.82 4.556-3.313 9.968-3.484a1 1 0 0 1 1.032 1v14.5a1 1 0 0 1-.97 1c-5.439.163-10.03 1.66-10.03 3.484 0-1.826-4.591-3.324-10.03-3.486a1 1 0 0 1-.97-1V3.557a1 1 0 0 1 1.032-1C7.443 2.727 12 4.222 12 6.037Z"/><path stroke="#191919" stroke-linecap="round" stroke-linejoin="round" d="M12 6.166v16.372M9.5 8.166A23.4 23.4 0 0 0 3 6.926M9.5 12.426a23.4 23.4 0 0 0-6.5-1.24M9.5 16.666a23.4 23.4 0 0 0-6.5-1.24M14.5 12.426a23.434 23.434 0 0 1 6.5-1.24M14.5 16.666a23.434 23.434 0 0 1 6.5-1.24"/><path fill="#ff808c" d="M16 2.389a.5.5 0 0 1 .376-.485 23.271 23.271 0 0 1 3.065-.566.5.5 0 0 1 .559.5v7.328l-2-2-2 2V2.389Z"/><path fill="#ffbfc5" d="M16 3.988a.5.5 0 0 1 .376-.485 23.27 23.27 0 0 1 3.065-.565.5.5 0 0 1 .559.5v-1.6a.5.5 0 0 0-.558-.5 23.268 23.268 0 0 0-3.065.563.5.5 0 0 0-.377.488v1.599Z"/><path stroke="#191919" stroke-linecap="round" stroke-linejoin="round" d="M16 2.389a.5.5 0 0 1 .376-.485 23.271 23.271 0 0 1 3.065-.566.5.5 0 0 1 .559.5v7.328l-2-2-2 2V2.389Z"/><path stroke="#191919" stroke-linecap="round" stroke-linejoin="round" d="M20 2.802c.638-.06 1.3-.1 1.967-.123a1 1 0 0 1 1.032 1v14.5a1 1 0 0 1-.97 1C16.591 19.338 12 20.838 12 22.666c0-1.828-4.591-3.328-10.03-3.486a1 1 0 0 1-.97-1V3.682a1 1 0 0 1 1.032-1C7.443 2.852 12 4.347 12 6.166c0-.711.7-1.372 1.867-1.924"/></svg>