<svg xmlns="http://www.w3.org/2000/svg" fill="none" viewBox="0 0 24 24"><desc>Alarm Bell Ring Streamline Icon: https://streamlinehq.com</desc><path fill="#ffef5e" d="M17.959 18.875V14.75a5.959 5.959 0 0 0-3.667-5.5 2.292 2.292 0 1 0-4.583 0 5.958 5.958 0 0 0-3.667 5.5v4.125a1.833 1.833 0 0 1-1.833 1.833h15.583a1.833 1.833 0 0 1-1.833-1.833Z"/><path fill="#fff9bf" d="M12 6.958A2.292 2.292 0 0 0 9.708 9.25a5.958 5.958 0 0 0-3.666 5.5v4.125a1.833 1.833 0 0 1-1.834 1.833H12V6.958Z"/><path fill="#ffbc44" stroke="#191919" stroke-linecap="round" stroke-linejoin="round" d="M13.833 20.708a1.834 1.834 0 0 1-3.667 0h3.667Z"/><path stroke="#191919" stroke-linecap="round" stroke-linejoin="round" d="M4.209 9.25A5.042 5.042 0 0 1 9.25 4.208"/><path stroke="#191919" stroke-linecap="round" stroke-linejoin="round" d="M1.459 9.25A7.792 7.792 0 0 1 9.25 1.458M19.792 9.25a5.042 5.042 0 0 0-5.042-5.042"/><path stroke="#191919" stroke-linecap="round" stroke-linejoin="round" d="M22.542 9.25a7.791 7.791 0 0 0-7.792-7.792M17.959 18.875V14.75a5.959 5.959 0 0 0-3.667-5.5 2.292 2.292 0 1 0-4.583 0 5.958 5.958 0 0 0-3.667 5.5v4.125a1.833 1.833 0 0 1-1.833 1.833h15.583a1.833 1.833 0 0 1-1.833-1.833Z"/></svg>