<svg xmlns="http://www.w3.org/2000/svg" fill="none" viewBox="0 0 24 24"><desc>Rating Star Ribbon Streamline Icon: https://streamlinehq.com</desc><path fill="#ff808c" d="M20.438 22.008a.993.993 0 0 1-1.532.833L12 18.373 5.094 22.84a.992.992 0 0 1-1.532-.832V1.993A.993.993 0 0 1 4.555 1h14.89a.992.992 0 0 1 .993.993v20.015Z"/><path fill="#ffbfc5" d="M12 1H4.555a.993.993 0 0 0-.993.993v20.015a.993.993 0 0 0 1.532.833L12 18.373V1"/><path stroke="#191919" stroke-linecap="round" stroke-linejoin="round" d="M20.438 22.008a.993.993 0 0 1-1.532.833L12 18.373 5.094 22.84a.992.992 0 0 1-1.532-.832V1.993A.993.993 0 0 1 4.555 1h14.89a.992.992 0 0 1 .993.993v20.015Z"/><path fill="#ffef5e" d="m12.584 5.45 1.272 2.502h2.482a.609.609 0 0 1 .427 1.061l-2.15 2.247L15.806 14a.648.648 0 0 1-.924.813L12 13.193l-2.879 1.62A.65.65 0 0 1 8.197 14l1.191-2.741-2.153-2.247a.608.608 0 0 1 .429-1.061h2.481l1.272-2.502a.656.656 0 0 1 1.167 0Z"/><path fill="#fff9bf" d="m8.813 12.582 4.904-4.904-1.134-2.228a.656.656 0 0 0-1.166 0l-1.276 2.502H7.66a.607.607 0 0 0-.425 1.061l2.15 2.246-.572 1.323Z"/><path stroke="#191919" stroke-linecap="round" stroke-linejoin="round" d="m12.584 5.45 1.272 2.502h2.482a.609.609 0 0 1 .427 1.061l-2.15 2.247L15.806 14a.648.648 0 0 1-.924.813L12 13.193l-2.879 1.62A.65.65 0 0 1 8.197 14l1.191-2.741-2.153-2.247a.608.608 0 0 1 .429-1.061h2.481l1.272-2.502a.656.656 0 0 1 1.167 0Z"/></svg>