<svg xmlns="http://www.w3.org/2000/svg" fill="none" viewBox="0 0 24 24"><desc>Check Square Streamline Icon: https://streamlinehq.com</desc><path fill="#78eb7b" d="M16.312 6.97c.529 0 .958.43.958.958v11.498c0 .53-.429.959-.958.959H4.814a.958.958 0 0 1-.959-.959V7.928c0-.529.43-.958.959-.958h11.498"/><path stroke="#191919" stroke-linecap="round" stroke-linejoin="round" d="M22.061 1.699 10.084 16.551 5.293 11.76"/><path stroke="#191919" stroke-linecap="round" stroke-linejoin="round" d="M19.186 11.282v10.06c0 .53-.429.959-.958.959H2.898a.958.958 0 0 1-.959-.958V6.012c0-.53.429-.958.958-.958h11.02"/></svg>