<svg xmlns="http://www.w3.org/2000/svg" fill="none" viewBox="0 0 24 24"><desc>Notes Paper Text Streamline Icon: https://streamlinehq.com</desc><path fill="#ffef5e" d="M23 1.957v13.39h-6.696a.957.957 0 0 0-.956.957V23H1.957A.957.957 0 0 1 1 22.044V1.957A.957.957 0 0 1 1.957 1h20.087a.957.957 0 0 1 .956.957Z"/><path fill="#ffbc44" d="M23 15.348 15.348 23v-6.696a.957.957 0 0 1 .956-.956H23"/><path stroke="#191919" stroke-linecap="round" stroke-linejoin="round" d="M23 1.957v13.39h-6.696a.957.957 0 0 0-.956.957V23H1.957A.957.957 0 0 1 1 22.044V1.957A.957.957 0 0 1 1.957 1h20.087a.957.957 0 0 1 .956.957Z"/><path stroke="#191919" stroke-linecap="round" stroke-linejoin="round" d="M23 15.348 15.348 23v-6.696a.957.957 0 0 1 .956-.956H23M5.304 10.044l.957-.957a1.354 1.354 0 0 1 1.913 0 1.354 1.354 0 0 0 1.913 0 1.354 1.354 0 0 1 1.913 0 1.353 1.353 0 0 0 1.913 0 1.354 1.354 0 0 1 1.913 0 1.354 1.354 0 0 0 1.913 0l.957-.956M5.304 14.827l.957-.957a1.353 1.353 0 0 1 1.913 0 1.354 1.354 0 0 0 1.913 0"/></svg>