<svg xmlns="http://www.w3.org/2000/svg" fill="none" viewBox="0 0 24 24"><desc>Office Drawer Streamline Icon: https://streamlinehq.com</desc><path fill="#e3e3e3" d="M2.913 8.652V3.87a.957.957 0 0 1 .956-.957H12a.956.956 0 0 1 .766.383l1.148 1.53h6.217a.956.956 0 0 1 .957.957v2.87"/><path fill="#fff" d="M2.913 12.478V7.696a.957.957 0 0 1 .956-.957H12a.956.956 0 0 1 .766.383l1.148 1.53h6.217a.956.956 0 0 1 .957.957v2.87"/><path stroke="#191919" stroke-linecap="round" stroke-linejoin="round" d="M2.913 12.478V7.696a.957.957 0 0 1 .956-.957H12a.956.956 0 0 1 .766.383l1.148 1.53h6.217a.956.956 0 0 1 .957.957v2.87"/><path fill="#ffe292" d="M1 13.435a.957.957 0 0 1 .957-.957h20.087a.957.957 0 0 1 .956.957v6.695a.957.957 0 0 1-.956.957H1.957A.957.957 0 0 1 1 20.13v-6.695"/><path fill="#fc3" d="M22.044 18.217H1.957A.956.956 0 0 1 1 17.261v2.87a.957.957 0 0 0 .957.956h20.087A.957.957 0 0 0 23 20.13v-2.87a.956.956 0 0 1-.956.957"/><path stroke="#191919" stroke-linecap="round" stroke-linejoin="round" d="M1 13.435a.957.957 0 0 1 .957-.957h20.087a.957.957 0 0 1 .956.957v6.695a.957.957 0 0 1-.956.957H1.957A.957.957 0 0 1 1 20.13v-6.695M2.913 4.826V3.87a.957.957 0 0 1 .956-.957H12a.956.956 0 0 1 .766.383l1.148 1.53h6.217a.956.956 0 0 1 .957.957M9.13 15.348h5.74"/></svg>