<svg xmlns="http://www.w3.org/2000/svg" fill="none" viewBox="0 0 24 24"><desc>Smiley Happy Streamline Icon: https://streamlinehq.com</desc><path fill="#ffef5e" d="M12 23c6.075 0 11-4.925 11-11S18.075 1 12 1 1 5.925 1 12s4.925 11 11 11"/><path fill="#fff9bf" d="M12 4.826a11.8 11.8 0 0 1 10.994 7.517c0-.114.006-.228.006-.343a11 11 0 1 0-21.994.343A11.8 11.8 0 0 1 12 4.826"/><path stroke="#191919" stroke-linecap="round" stroke-linejoin="round" d="M12 23c6.075 0 11-4.925 11-11S18.075 1 12 1 1 5.925 1 12s4.925 11 11 11"/><path stroke="#191919" d="M6.739 10.326a.24.24 0 0 1 0-.478M6.74 10.326a.24.24 0 0 0 0-.478M17.26 10.326a.24.24 0 0 1 0-.478M17.26 10.326a.24.24 0 0 0 0-.478"/><path fill="#ff808c" stroke="#191919" stroke-linecap="round" stroke-linejoin="round" d="M15.705 15.348a.957.957 0 0 1 .927 1.194 4.782 4.782 0 0 1-9.264 0 .956.956 0 0 1 .927-1.194h7.41Z"/></svg>