<svg xmlns="http://www.w3.org/2000/svg" fill="none" viewBox="0 0 24 24"><desc>Single Neutral Actions Heart Streamline Icon: https://streamlinehq.com</desc><path fill="#e3e3e3" d="M7.697 9.13a4.065 4.065 0 1 0 0-8.129 4.065 4.065 0 0 0 0 8.13M1 17.26a6.695 6.695 0 1 1 13.39 0H1"/><path fill="#fff" d="M7.697 3.392a4.053 4.053 0 0 1 3.866 2.87c.126-.387.193-.79.199-1.196a4.065 4.065 0 0 0-8.13 0c.005.406.072.81.199 1.195a4.053 4.053 0 0 1 3.866-2.87ZM7.695 12.956a6.695 6.695 0 0 1 6.248 4.305h.447a6.695 6.695 0 0 0-13.39 0h.448a6.695 6.695 0 0 1 6.247-4.305Z"/><path stroke="#191919" stroke-linecap="round" stroke-linejoin="round" d="M7.697 9.13a4.065 4.065 0 1 0 0-8.129 4.065 4.065 0 0 0 0 8.13M8.652 17.26H1a6.696 6.696 0 0 1 9.565-6.05"/><path fill="#ff808c" d="M17.607 22.852a.48.48 0 0 1-.69 0L12.37 18.11a2.895 2.895 0 0 1 4.093-4.093l.798.799.799-.799a2.895 2.895 0 0 1 4.093 4.093l-4.546 4.742Z"/><path fill="#ffbfc5" d="M22.694 14.774a2.894 2.894 0 0 0-4.635-.752l-.8.799-.798-.8a2.889 2.889 0 0 0-4.754 3.048 6.924 6.924 0 0 0 5.553 2.421 6.92 6.92 0 0 0 5.552-2.42 2.892 2.892 0 0 0-.119-2.296Z"/><path stroke="#191919" stroke-linecap="round" stroke-linejoin="round" d="M17.607 22.852a.48.48 0 0 1-.69 0L12.37 18.11a2.895 2.895 0 0 1 4.093-4.093l.798.799.799-.799a2.895 2.895 0 0 1 4.093 4.093l-4.546 4.742Z"/></svg>