<svg xmlns="http://www.w3.org/2000/svg" fill="none" viewBox="0 0 24 24"><desc>Gift Box 1 Streamline Icon: https://streamlinehq.com</desc><path fill="#ff828c" d="M17.26 11.044H6.74a.956.956 0 0 0-.957.956v.957a.957.957 0 0 0 .957.956h.478l.415 5.807a.956.956 0 0 0 .956.888h6.828a.957.957 0 0 0 .956-.888l.41-5.807h.478a.956.956 0 0 0 .956-.957V12a.956.956 0 0 0-.956-.957Z"/><path fill="#ffea80" d="M13.435 11.044h-2.87v9.564h2.87v-9.564"/><path stroke="#191919" stroke-linecap="round" stroke-linejoin="round" d="M10.566 13.913H6.74a.956.956 0 0 1-.957-.957V12a.956.956 0 0 1 .957-.957h10.52a.957.957 0 0 1 .957.957v.957a.956.956 0 0 1-.956.956h-3.826"/><path stroke="#191919" stroke-linecap="round" stroke-linejoin="round" d="M13.435 13.913h3.347l-.415 5.807a.956.956 0 0 1-.956.888H8.586a.956.956 0 0 1-.956-.888l-.412-5.807h3.347M10.565 11.044v9.564M13.435 20.608v-9.564M8.652 9.789c.574.577 3.348 1.254 3.348 1.254s-.678-2.773-1.255-3.347a1.48 1.48 0 1 0-2.093 2.093ZM15.348 9.789c-.574.577-3.348 1.255-3.348 1.255s.678-2.774 1.255-3.348a1.48 1.48 0 0 1 2.093 2.093M12 4.826V3.392M18.763 7.628l1.014-1.014M21.565 13.913H23M5.237 7.628 4.222 6.614M2.435 13.913H1"/></svg>