<svg xmlns="http://www.w3.org/2000/svg" fill="none" viewBox="0 0 24 24"><desc>House 4 Streamline Icon: https://streamlinehq.com</desc><path stroke="#191919" stroke-linecap="round" stroke-linejoin="round" d="M1.626 8.894 11.379 1a.988.988 0 0 1 1.242 0l9.753 7.895"/><path fill="#fee3aa" d="m11.37 4.968-8.376 6.916c-.227.21-.363.5-.38.81v9.539a.988.988 0 0 0 .987.988H9.53v-7.41a.494.494 0 0 1 .494-.494h3.952a.494.494 0 0 1 .494.494v7.41h5.928a.988.988 0 0 0 .988-.988v-9.537a1.195 1.195 0 0 0-.38-.809l-8.377-6.916a.989.989 0 0 0-1.259-.003Z"/><path fill="#fc3" d="M11.075 8.733a1.451 1.451 0 0 1 1.85 0l8.461 6.99v-3.027a1.196 1.196 0 0 0-.38-.809l-8.377-6.916a.988.988 0 0 0-1.259 0l-8.376 6.916c-.227.21-.363.5-.38.81v3.026l8.461-6.99Z"/><path stroke="#191919" stroke-linecap="round" stroke-linejoin="round" d="m11.37 4.968-8.376 6.916c-.227.21-.363.5-.38.81v9.539a.988.988 0 0 0 .987.988H9.53v-7.41a.494.494 0 0 1 .494-.494h3.952a.494.494 0 0 1 .494.494v7.41h5.928a.988.988 0 0 0 .988-.988v-9.537a1.195 1.195 0 0 0-.38-.809l-8.377-6.916a.989.989 0 0 0-1.259-.003Z"/></svg>