<svg xmlns="http://www.w3.org/2000/svg" fill="none" viewBox="0 0 24 24"><desc>Login Key Streamline Icon: https://streamlinehq.com</desc><path fill="#ffef5e" d="m19.791 1.458-8.966 8.969a6.417 6.417 0 1 0 2.75 2.75l3.008-3.01h1.375V8.792l.458-.459h1.375V6.958l.459-.458h1.375V5.125l.916-.917v-2.75h-2.75ZM6.041 19.333a1.375 1.375 0 1 1 0-2.75 1.375 1.375 0 0 1 0 2.75Z"/><path fill="#fff9bf" d="m3.338 20.662 1.73-1.731a1.375 1.375 0 0 1 1.945-1.945L22.541 1.458h-2.75l-8.966 8.969a6.417 6.417 0 0 0-7.487 10.235Z"/><path stroke="#191919" stroke-linecap="round" stroke-linejoin="round" d="m19.791 1.458-8.966 8.969a6.417 6.417 0 1 0 2.75 2.75l3.008-3.01h1.375V8.792l.458-.459h1.375V6.958l.459-.458h1.375V5.125l.916-.917v-2.75h-2.75ZM6.041 19.333a1.375 1.375 0 1 1 0-2.75 1.375 1.375 0 0 1 0 2.75Z"/></svg>