<svg xmlns="http://www.w3.org/2000/svg" fill="none" viewBox="0 0 24 24"><desc>Wifi Signal 2 Streamline Icon: https://streamlinehq.com</desc><path fill="#c2f3ff" d="M12 19.734a8.905 8.905 0 1 0 0-17.81 8.905 8.905 0 0 0 0 17.81Z"/><path stroke="#191919" stroke-linecap="round" stroke-linejoin="round" d="M12 13.64v7.967M19.154 3.33a10.782 10.782 0 0 1 0 15.245"/><path stroke="#191919" stroke-linecap="round" stroke-linejoin="round" d="M16.5 5.98a7.03 7.03 0 0 1 0 9.943M4.846 3.33a10.78 10.78 0 0 0 0 15.245"/><path stroke="#191919" stroke-linecap="round" stroke-linejoin="round" d="M7.5 5.98a7.03 7.03 0 0 0 0 9.943"/><path fill="#ffef5e" d="M12 13.64a2.812 2.812 0 1 0 0-5.625 2.812 2.812 0 0 0 0 5.624"/><path fill="#fff9bf" d="M9.188 10.83c0 .2.022.401.065.598a2.812 2.812 0 0 0 4.088-3.073 2.812 2.812 0 0 0-4.153 2.474Z"/><path stroke="#191919" stroke-linecap="round" stroke-linejoin="round" d="M12 13.64a2.812 2.812 0 1 0 0-5.625 2.812 2.812 0 0 0 0 5.624"/></svg>