<svg xmlns="http://www.w3.org/2000/svg" fill="none" viewBox="0 0 24 24"><path fill="#ffef5e" d="M19.758 13.369a3.652 3.652 0 0 0-3.651-3.65H7.893a3.651 3.651 0 0 0-3.65 3.65v5.476a3.651 3.651 0 0 0 3.65 3.65h8.214a3.651 3.651 0 0 0 3.65-3.65v-5.476Z"/><path fill="#fff9bf" d="M12 9.718H7.893a3.651 3.651 0 0 0-3.65 3.65v5.477a3.651 3.651 0 0 0 3.65 3.65H12V9.719Z"/><path stroke="#191919" stroke-linecap="round" stroke-linejoin="round" d="M19.758 13.369a3.652 3.652 0 0 0-3.651-3.65H7.893a3.651 3.651 0 0 0-3.65 3.65v5.476a3.651 3.651 0 0 0 3.65 3.65h8.214a3.651 3.651 0 0 0 3.65-3.65v-5.476Z"/><path fill="gray" stroke="#191919" stroke-linecap="round" stroke-linejoin="round" d="M12 17.476a1.827 1.827 0 1 0 0-3.653 1.827 1.827 0 0 0 0 3.653Z"/><path stroke="#191919" stroke-linecap="round" stroke-linejoin="round" d="M6.98 6.524a5.02 5.02 0 1 1 10.04 0v3.309"/></svg>