<svg xmlns="http://www.w3.org/2000/svg" fill="none" viewBox="0 0 24 24"><desc>Navigation Menu 1 Streamline Icon: https://streamlinehq.com</desc><path fill="#66e1ff" d="M23.21 4.747a1.32 1.32 0 0 1-1.32 1.319H2.11a1.319 1.319 0 0 1-1.32-1.32V3.429A1.32 1.32 0 0 1 2.11 2.11h19.78a1.319 1.319 0 0 1 1.32 1.32v1.318Z"/><path fill="#c2f3ff" d="M23.21 4.087v-.659a1.32 1.32 0 0 0-1.32-1.319H2.11A1.32 1.32 0 0 0 .79 3.43v.658h22.42Z"/><path fill="#66e1ff" d="M23.21 12.66a1.32 1.32 0 0 1-1.32 1.318H2.11A1.32 1.32 0 0 1 .79 12.66v-1.318a1.319 1.319 0 0 1 1.32-1.32h19.78a1.319 1.319 0 0 1 1.32 1.32v1.318Z"/><path fill="#c2f3ff" d="M23.21 12v-.66a1.32 1.32 0 0 0-1.32-1.318H2.11A1.319 1.319 0 0 0 .79 11.34V12h22.42Z"/><path fill="#66e1ff" d="M23.21 20.572a1.319 1.319 0 0 1-1.32 1.319H2.11a1.319 1.319 0 0 1-1.32-1.32v-1.318a1.319 1.319 0 0 1 1.32-1.319h19.78a1.318 1.318 0 0 1 1.32 1.32v1.318Z"/><path fill="#c2f3ff" d="M23.21 19.913v-.66a1.32 1.32 0 0 0-1.32-1.319H2.11a1.319 1.319 0 0 0-1.32 1.32v.659h22.42Z"/><path stroke="#191919" stroke-linecap="round" stroke-linejoin="round" d="M23.21 4.747a1.32 1.32 0 0 1-1.32 1.319H2.11a1.319 1.319 0 0 1-1.32-1.32V3.429A1.32 1.32 0 0 1 2.11 2.11h19.78a1.319 1.319 0 0 1 1.32 1.32v1.318ZM23.21 12.66a1.32 1.32 0 0 1-1.32 1.318H2.11A1.32 1.32 0 0 1 .79 12.66v-1.318a1.319 1.319 0 0 1 1.32-1.32h19.78a1.319 1.319 0 0 1 1.32 1.32v1.318ZM23.21 20.572a1.319 1.319 0 0 1-1.32 1.319H2.11a1.319 1.319 0 0 1-1.32-1.32v-1.318a1.319 1.319 0 0 1 1.32-1.319h19.78a1.318 1.318 0 0 1 1.32 1.32v1.318Z"/></svg>