<svg xmlns="http://www.w3.org/2000/svg" fill="none" viewBox="0 0 24 24"><desc>Picture Sun Streamline Icon: https://streamlinehq.com</desc><path fill="#71e3ff" d="M23 2.913v16.5a4.548 4.548 0 0 0-7.509-2.4A8.368 8.368 0 0 0 1 19.795V2.913A1.919 1.919 0 0 1 2.913 1h18.174A1.919 1.919 0 0 1 23 2.913Z"/><path fill="#c9f4ff" d="M21.087 1H2.913A1.919 1.919 0 0 0 1 2.913v16.883a8.376 8.376 0 0 1 7.689-5.87L21.55 1.063A1.86 1.86 0 0 0 21.087 1Z"/><path stroke="#191919" stroke-linecap="round" stroke-linejoin="round" d="M23 2.913v16.5a4.548 4.548 0 0 0-7.509-2.4A8.368 8.368 0 0 0 1 19.795V2.913A1.919 1.919 0 0 1 2.913 1h18.174A1.919 1.919 0 0 1 23 2.913Z"/><path fill="#ffef5e" d="M16.304 10.087a2.391 2.391 0 1 0 0-4.783 2.391 2.391 0 0 0 0 4.783"/><path stroke="#191919" stroke-linecap="round" stroke-linejoin="round" d="M16.304 3.391v-.478M13.26 4.652l-.339-.339M12 7.696h-.479M13.26 10.74l-.339.338M16.304 12v.478M19.348 10.74l.338.338M20.608 7.696h.479M19.348 4.652l.338-.339"/><path fill="#78ed7c" d="M23 19.413v1.674A1.92 1.92 0 0 1 21.087 23H2.913A1.918 1.918 0 0 1 1 21.087v-1.291a8.367 8.367 0 0 1 14.491-2.784A4.548 4.548 0 0 1 23 19.413Z"/><path stroke="#191919" stroke-linecap="round" stroke-linejoin="round" d="M23 19.413v1.674A1.92 1.92 0 0 1 21.087 23H2.913A1.918 1.918 0 0 1 1 21.087v-1.291a8.367 8.367 0 0 1 14.491-2.784A4.548 4.548 0 0 1 23 19.413Z"/><path stroke="#191919" stroke-linecap="round" stroke-linejoin="round" d="M16.792 19.25a8.024 8.024 0 0 0-1.301-2.238M16.304 10.087a2.391 2.391 0 1 0 0-4.783 2.391 2.391 0 0 0 0 4.783"/></svg>