<svg xmlns="http://www.w3.org/2000/svg" fill="none" viewBox="0 0 24 24"><desc>Cog Streamline Icon: https://streamlinehq.com</desc><path fill="#e3e3e3" d="M21.625 10.625h-2.06c-.187-.93-.495-1.83-.916-2.678l1.456-1.456a.916.916 0 0 0 0-1.296l-1.3-1.296a.917.917 0 0 0-1.296 0l-1.457 1.456a10.788 10.788 0 0 0-2.677-.917V2.375a.917.917 0 0 0-.916-.917h-.917a.917.917 0 0 0-.917.917v2.062c-.928.187-1.829.495-2.677.916L6.49 3.9a.917.917 0 0 0-1.296 0L3.897 5.196a.917.917 0 0 0 0 1.296l1.457 1.456c-.421.849-.73 1.75-.916 2.678H2.375a.917.917 0 0 0-.916.917v.916a.916.916 0 0 0 .916.917h2.059c.187.928.495 1.829.917 2.677l-1.458 1.458a.917.917 0 0 0 0 1.296l1.3 1.296a.916.916 0 0 0 1.297 0l1.457-1.457c.848.421 1.749.73 2.678.916v2.063a.917.917 0 0 0 .917.917h.916a.917.917 0 0 0 .917-.917v-2.058a10.82 10.82 0 0 0 2.677-.917l1.458 1.457a.917.917 0 0 0 1.296 0l1.297-1.296a.917.917 0 0 0 0-1.296l-1.457-1.458c.422-.849.73-1.749.917-2.677h2.062a.917.917 0 0 0 .917-.917v-.917a.914.914 0 0 0-.917-.921ZM12 16.125a4.125 4.125 0 1 1 0-8.25 4.125 4.125 0 0 1 0 8.25"/><path fill="#fff" d="M4.434 13.375c.187.929.495 1.829.917 2.678L3.893 17.51a.917.917 0 0 0 0 1.296l.648.648 4.538-4.537a4.126 4.126 0 1 1 5.834-5.835l4.537-4.536-.648-.648a.917.917 0 0 0-1.296 0l-1.454 1.457a10.788 10.788 0 0 0-2.677-.917V2.375a.917.917 0 0 0-.916-.917h-.917a.917.917 0 0 0-.917.917v2.062c-.928.187-1.829.495-2.677.916L6.49 3.9a.917.917 0 0 0-1.296 0L3.897 5.196a.917.917 0 0 0 0 1.296l1.457 1.456c-.421.849-.73 1.75-.916 2.678H2.375a.917.917 0 0 0-.916.917v.916a.916.916 0 0 0 .916.917z"/><path stroke="#191919" stroke-linecap="round" stroke-linejoin="round" d="M21.625 10.625h-2.06c-.187-.93-.495-1.83-.916-2.678l1.456-1.456a.916.916 0 0 0 0-1.296l-1.3-1.296a.917.917 0 0 0-1.296 0l-1.457 1.456a10.788 10.788 0 0 0-2.677-.917V2.375a.917.917 0 0 0-.916-.917h-.917a.917.917 0 0 0-.917.917v2.062c-.928.187-1.829.495-2.677.916L6.49 3.9a.917.917 0 0 0-1.296 0L3.897 5.196a.917.917 0 0 0 0 1.296l1.457 1.456c-.421.849-.73 1.75-.916 2.678H2.375a.917.917 0 0 0-.916.917v.916a.916.916 0 0 0 .916.917h2.059c.187.928.495 1.829.917 2.677l-1.458 1.458a.917.917 0 0 0 0 1.296l1.3 1.296a.916.916 0 0 0 1.297 0l1.457-1.457c.848.421 1.749.73 2.678.916v2.063a.917.917 0 0 0 .917.917h.916a.917.917 0 0 0 .917-.917v-2.058a10.82 10.82 0 0 0 2.677-.917l1.458 1.457a.917.917 0 0 0 1.296 0l1.297-1.296a.917.917 0 0 0 0-1.296l-1.457-1.458c.422-.849.73-1.749.917-2.677h2.062a.917.917 0 0 0 .917-.917v-.917a.914.914 0 0 0-.917-.921ZM12 16.125a4.125 4.125 0 1 1 0-8.25 4.125 4.125 0 0 1 0 8.25"/></svg>