<svg xmlns="http://www.w3.org/2000/svg" fill="none" viewBox="0 0 24 24"><desc>Weather Sun Streamline Icon: https://streamlinehq.com</desc><path fill="#fff9bf" d="M19 12A7.001 7.001 0 0 0 7.05 7.05 7 7 0 1 0 19 12"/><path fill="#ffef5e" d="M12 15.5a7 7 0 0 1-6.771-5.25 7 7 0 1 0 13.542 0A7 7 0 0 1 12 15.5"/><path stroke="#191919" stroke-linecap="round" stroke-linejoin="round" d="M19 12A7.001 7.001 0 0 0 7.05 7.05 7 7 0 1 0 19 12M12 21v2M21 12h2M12 3V1M3 12H1M5.637 18.364l-1.415 1.415M18.364 18.364l1.414 1.414M18.365 5.637l1.414-1.414M5.636 5.637 4.222 4.223"/></svg>