<svg xmlns="http://www.w3.org/2000/svg" fill="none" viewBox="0 0 24 24"><desc>Earth Pin 2 Streamline Icon: https://streamlinehq.com</desc><path fill="#e3e3e3" d="M20.609 10.087c0 6.696-8.61 12.913-8.61 12.913s-8.608-6.217-8.608-12.913C3.391 5.069 6.981 1 12 1s8.609 4.069 8.609 9.087"/><path fill="#fff" d="M12 23S3.39 16.783 3.39 10.087C3.391 5.069 6.981 1 12 1v22"/><path stroke="#191919" stroke-linecap="round" stroke-linejoin="round" d="M20.609 10.087c0 6.696-8.61 12.913-8.61 12.913s-8.608-6.217-8.608-12.913C3.391 5.069 6.981 1 12 1s8.609 4.069 8.609 9.087"/><path fill="#66e1ff" d="M12 15.348c4.418 0 7.179-4.783 4.97-8.61A5.739 5.739 0 0 0 12 3.87c-4.418 0-7.18 4.782-4.97 8.608a5.739 5.739 0 0 0 4.97 2.87"/><path fill="#78eb7b" d="M11.043 10.564a.957.957 0 0 0-.956-.956.957.957 0 0 1-.957-.957c0-.792-.642-1.434-1.434-1.435H6.78a5.747 5.747 0 0 0 .557 5.74h1.314c1.32 0 2.391-1.071 2.391-2.392M15.795 5.303a2.366 2.366 0 0 0-2.36 2.392c0 .528.428.956.956.956.529 0 .957.428.957.957 0 .792.642 1.435 1.435 1.434h.775a5.749 5.749 0 0 0-1.763-5.739Z"/><path stroke="#191919" stroke-linecap="round" stroke-linejoin="round" d="M12 15.348c4.418 0 7.179-4.783 4.97-8.61A5.739 5.739 0 0 0 12 3.87c-4.418 0-7.18 4.782-4.97 8.608a5.739 5.739 0 0 0 4.97 2.87"/><path stroke="#191919" stroke-linecap="round" stroke-linejoin="round" d="M6.781 7.217h.915c.792 0 1.434.643 1.434 1.435 0 .528.429.957.957.957s.957.428.957.956c0 1.32-1.071 2.391-2.392 2.392H7.338M17.558 11.044h-.775a1.435 1.435 0 0 1-1.435-1.435.957.957 0 0 0-.957-.957.957.957 0 0 1-.956-.956 2.364 2.364 0 0 1 2.361-2.392"/></svg>