<svg xmlns="http://www.w3.org/2000/svg" fill="none" viewBox="0 0 24 24"><desc>Network Search Streamline Icon: https://streamlinehq.com</desc><path fill="#66e1ff" d="M12 22.998c6.074 0 10.999-4.925 10.999-11C22.999 5.926 18.074 1 12 1 5.926 1 1.001 5.925 1.001 11.999c0 6.074 4.925 10.999 10.999 10.999Z"/><path fill="#c2f3ff" d="M4.314 14.87a10.999 10.999 0 0 1 16.398-9.584A11 11 0 1 0 6.601 21.583a10.948 10.948 0 0 1-2.287-6.713Z"/><path stroke="#191919" stroke-linecap="round" stroke-linejoin="round" d="m2.338 17.261 7.75.001M2.925 5.784h18.157M11.044 11.523H1.01M11.405 22.985A10.999 10.999 0 1 1 23 11.523"/><path stroke="#191919" stroke-linecap="round" stroke-linejoin="round" d="M11.3 1.028c-5.738 6.217-5.634 14.306.105 21.958M12.698 1.028a15.32 15.32 0 0 1 4.147 8.588"/><path fill="#e3e3e3" d="M16.81 21.143a4.331 4.331 0 1 0 0-8.662 4.331 4.331 0 0 0 0 8.662Z"/><path fill="#fff" d="M13.748 19.875a4.331 4.331 0 0 1 6.12-6.122l-6.12 6.122"/><path stroke="#191919" stroke-linecap="round" stroke-linejoin="round" d="M16.81 21.143a4.331 4.331 0 1 0 0-8.662 4.331 4.331 0 0 0 0 8.662ZM22.999 23l-3.106-3.106"/></svg>