<svg xmlns="http://www.w3.org/2000/svg" fill="none" viewBox="0 0 24 24"><desc>Tags 1 Streamline Icon: https://streamlinehq.com</desc><path fill="#ffbc44" d="M22.11 14.331 10.105 2.321a2.556 2.556 0 0 0-1.564-.647h-5.95a.917.917 0 0 0-.917.917l.005 5.952c.033.58.261 1.132.65 1.565l12 12a.505.505 0 0 0 .917-.228l1.552-5.081 5.082-1.551a.506.506 0 0 0 .228-.917ZM6.256 8.091a1.833 1.833 0 1 1 0-3.667 1.833 1.833 0 0 1 0 3.667"/><path fill="#ffdda1" d="M4.961 4.961a1.834 1.834 0 1 1 2.593 2.593L16.8 16.8l5.082-1.551a.505.505 0 0 0 .228-.917L10.106 2.321a2.556 2.556 0 0 0-1.564-.647h-5.95a.917.917 0 0 0-.649.27L4.961 4.96"/><path stroke="#191919" stroke-linecap="round" stroke-linejoin="round" d="M22.11 14.331 10.105 2.321a2.556 2.556 0 0 0-1.564-.647h-5.95a.917.917 0 0 0-.917.917l.005 5.952c.033.58.261 1.132.65 1.565l12 12a.505.505 0 0 0 .917-.228l1.552-5.081 5.082-1.551a.506.506 0 0 0 .228-.917ZM6.256 8.091a1.833 1.833 0 1 1 0-3.667 1.833 1.833 0 0 1 0 3.667"/></svg>