<svg xmlns="http://www.w3.org/2000/svg" fill="none" viewBox="-0.5 -0.5 24 24"><desc>Github Streamline Icon: https://streamlinehq.com</desc><path stroke="#000" stroke-linecap="round" stroke-linejoin="round" d="M15.95 21.985V18.98a3.528 3.528 0 0 0-.984-2.733c3.288-.367 6.743-1.613 6.743-7.33a5.697 5.697 0 0 0-1.57-3.926 5.309 5.309 0 0 0-.095-3.948s-1.235-.366-4.094 1.55c-2.4-.65-4.93-.65-7.33 0-2.858-1.916-4.094-1.55-4.094-1.55a5.308 5.308 0 0 0-.094 3.948 5.696 5.696 0 0 0-1.57 3.958c0 5.675 3.455 6.92 6.743 7.33a3.528 3.528 0 0 0-.984 2.7v3.006"/><path stroke="#000" stroke-linecap="round" stroke-linejoin="round" d="M8.62 19.89c-3.14 1.02-5.758 0-7.329-3.14"/></svg>